<?xml version="1.0" standalone="no"?>
<!DOCTYPE svg PUBLIC "-//W3C//DTD SVG 20010904//EN"
 "http://www.w3.org/TR/2001/REC-SVG-20010904/DTD/svg10.dtd">
<svg version="1.0" xmlns="http://www.w3.org/2000/svg"
 width="923.000000pt" height="583.000000pt" viewBox="0 0 923.000000 583.000000"
 preserveAspectRatio="xMidYMid meet">

<g transform="translate(0.000000,583.000000) scale(0.100000,-0.100000)"
fill="#000000" stroke="none">
<path d="M1731 4873 c-1 -18 4 -33 9 -33 12 0 12 17 0 45 -7 17 -9 15 -9 -12z"/>
<path d="M3160 4890 c-12 -8 -9 -10 13 -10 15 0 27 5 27 10 0 13 -20 13 -40 0z"/>
<path d="M3792 4870 c0 -16 4 -30 9 -30 5 0 9 14 9 30 0 17 -4 30 -8 30 -5 0
-9 -13 -10 -30z"/>
<path d="M4620 4890 c0 -5 5 -10 10 -10 6 0 10 5 10 10 0 6 -4 10 -10 10 -5 0
-10 -4 -10 -10z"/>
<path d="M6000 4890 c0 -5 18 -10 40 -10 22 0 40 5 40 10 0 6 -18 10 -40 10
-22 0 -40 -4 -40 -10z"/>
<path d="M6564 4888 c-5 -8 0 -9 14 -6 12 4 22 2 22 -3 0 -5 -136 -10 -307
-12 l-308 -2 318 -3 c210 -1 316 1 312 8 -3 6 -1 10 4 10 6 0 11 5 11 10 0 14
-57 13 -66 -2z"/>
<path d="M6642 4870 c0 -19 2 -27 5 -17 2 9 2 25 0 35 -3 9 -5 1 -5 -18z"/>
<path d="M2978 4883 c12 -2 32 -2 45 0 12 2 2 4 -23 4 -25 0 -35 -2 -22 -4z"/>
<path d="M4576 4874 c-8 -22 -7 -34 3 -34 5 0 11 11 13 25 6 28 -6 34 -16 9z"/>
<path d="M1878 4863 c67 -2 177 -2 245 0 67 1 12 3 -123 3 -135 0 -190 -2
-122 -3z"/>
<path d="M2320 4860 c0 -6 -106 -11 -282 -13 l-283 -2 341 -3 c248 -1 343 -5
352 -14 9 -9 12 -6 12 15 0 28 -14 36 -24 15 -5 -10 -7 -10 -12 0 -3 6 -10 12
-15 12 -6 0 -7 -4 -4 -10 4 -6 -7 -10 -24 -10 -17 0 -31 5 -31 10 0 6 -7 10
-15 10 -8 0 -15 -4 -15 -10z"/>
<path d="M2465 4833 c-12 -59 -17 -2363 -5 -2363 6 0 11 385 14 1128 4 1334 3
1233 21 1225 8 -3 23 -2 32 2 25 9 414 12 400 3 -7 -5 -3 -8 11 -8 13 0 22 -6
22 -15 0 -8 -5 -15 -11 -15 -6 0 -9 -10 -7 -22 2 -13 10 -23 18 -23 8 0 16 10
18 23 2 12 8 22 13 22 5 0 9 9 9 20 0 11 -4 20 -10 20 -5 0 -10 6 -10 14 0 8
-7 17 -16 20 -9 3 -123 6 -254 6 l-238 0 -7 -37z"/>
<path d="M3047 4855 c-4 -8 -2 -17 3 -20 6 -4 10 3 10 14 0 25 -6 27 -13 6z"/>
<path d="M3076 4852 c-9 -26 -1 -41 13 -26 5 5 5 18 1 29 -7 19 -7 19 -14 -3z"/>
<path d="M3110 4855 c0 -8 7 -15 16 -15 8 0 12 5 9 10 -4 6 7 10 25 10 18 0
29 -4 25 -10 -4 -7 95 -9 292 -8 l298 3 -290 5 -290 5 270 5 270 5 -312 3
c-273 2 -313 0 -313 -13z"/>
<path d="M4607 4857 c-4 -12 -1 -17 11 -17 9 0 161 0 336 0 218 0 324 -4 333
-11 11 -9 13 -186 15 -958 l3 -946 5 935 c3 514 6 916 8 893 2 -43 9 -49 50
-44 9 2 12 -180 12 -881 0 -706 3 -880 13 -870 9 10 12 200 12 882 0 477 3
866 6 864 4 -2 12 3 18 10 14 16 4 25 -23 20 -35 -5 -53 12 -48 45 5 33 -21
71 -34 50 -4 -7 0 -17 8 -23 8 -6 14 -21 13 -33 -2 -32 -15 -42 -15 -12 0 14
-4 29 -9 34 -4 6 -11 23 -15 39 -6 23 -4 27 8 23 9 -4 18 -2 21 3 4 6 -5 10
-19 10 -14 0 -26 -5 -26 -10 0 -7 -6 -7 -19 0 -13 6 -132 9 -333 8 l-313 -3
310 -5 310 -5 -312 -3 c-235 -1 -312 1 -315 10 -3 7 -7 6 -11 -5z"/>
<path d="M5352 4848 l3 -23 211 0 c118 0 207 4 200 8 -7 6 -4 7 7 3 11 -3 30
-9 43 -12 18 -5 24 -13 25 -33 l0 -26 10 24 c6 17 6 28 -3 39 -10 12 -10 16 0
19 6 3 12 9 12 14 0 5 -107 9 -256 9 l-255 0 3 -22z"/>
<path d="M5921 4843 c2 -24 2 -25 6 -5 4 22 23 32 23 12 0 -7 114 -9 328 -8
l327 3 -317 2 c-201 2 -318 7 -318 13 0 6 -11 10 -25 10 -21 0 -25 -4 -24 -27z"/>
<path d="M5869 4850 c-5 -28 -3 -33 13 -36 17 -2 32 21 22 37 -7 12 -34 11
-35 -1z"/>
<path d="M3043 4794 c-7 -3 -9 -12 -6 -20 4 -10 0 -12 -11 -8 -17 6 -38 -10
-48 -38 -4 -10 -1 -19 8 -22 12 -5 14 -149 14 -1036 l0 -1031 -30 -10 c-25 -9
-30 -16 -30 -45 0 -19 -4 -34 -10 -34 -5 0 -10 -13 -10 -30 0 -16 -4 -30 -10
-30 -5 0 -10 5 -10 12 0 9 -3 9 -12 0 -14 -14 -8 -22 26 -28 25 -4 26 -2 26
36 0 38 2 40 30 40 35 0 38 10 10 30 -21 15 -27 40 -11 40 5 0 16 -7 25 -15
20 -21 36 -19 36 5 0 11 -6 20 -12 20 -10 0 -13 215 -13 1039 0 984 1 1039 18
1038 16 -1 17 -59 19 -1042 l3 -1040 5 1077 c3 592 7 1079 10 1081 3 3 4 -492
3 -1100 -2 -713 1 -1111 7 -1123 7 -13 7 -21 0 -25 -5 -3 -10 -1 -10 4 0 6 -4
11 -9 11 -5 0 -7 -9 -4 -20 6 -23 16 -25 31 -7 12 14 17 2076 6 2202 -7 72
-11 81 -41 69z m34 -1646 c-1 -288 -2 -53 -2 522 0 575 1 810 2 523 2 -288 2
-758 0 -1045z"/>
<path d="M5896 4785 c4 -9 0 -15 -10 -15 -16 0 -20 -10 -17 -42 2 -20 -33 -26
-44 -8 -3 6 -1 10 4 10 6 0 11 5 11 10 0 16 -17 11 -24 -7 -4 -10 -1 -20 9
-25 13 -8 15 -106 15 -883 0 -798 1 -875 16 -890 16 -15 18 -15 35 2 17 17 18
66 21 941 2 720 0 922 -9 922 -7 0 -10 -7 -7 -15z m-26 -960 c0 -577 -3 -875
-10 -875 -7 0 -10 298 -10 875 0 577 3 875 10 875 7 0 10 -298 10 -875z"/>
<path d="M2497 4776 c-4 -10 -1 -13 7 -10 8 3 17 -5 22 -18 5 -13 11 -565 14
-1228 3 -796 8 -1204 15 -1203 7 2 11 411 13 1194 2 1095 1 1193 -14 1204 -12
8 -15 22 -12 43 4 28 2 32 -18 32 -12 0 -24 -7 -27 -14z m60 -1863 c-1 -329
-2 -60 -2 597 0 657 1 926 2 598 2 -329 2 -867 0 -1195z"/>
<path d="M2562 4770 c0 -14 2 -19 5 -12 2 6 2 18 0 25 -3 6 -5 1 -5 -13z"/>
<path d="M2506 4725 c4 -8 2 -15 -2 -15 -5 0 -9 -540 -9 -1200 0 -1060 2
-1200 15 -1200 13 0 15 141 12 1215 -1 768 -6 1215 -12 1215 -5 0 -7 -7 -4
-15z"/>
<path d="M2940 3670 c0 -1023 0 -1030 20 -1030 20 0 20 7 20 1030 0 1023 0
1030 -20 1030 -20 0 -20 -7 -20 -1030z"/>
<path d="M5325 3830 c0 -481 1 -678 2 -438 2 241 2 635 0 875 -1 241 -2 44 -2
-437z"/>
<path d="M5413 3025 c0 -44 2 -61 4 -37 2 23 2 59 0 80 -2 20 -4 1 -4 -43z"/>
<path d="M5330 2924 c-13 -33 -13 -54 0 -54 6 0 10 6 9 13 -4 30 4 39 11 12 7
-28 8 -27 9 13 1 47 -14 56 -29 16z"/>
<path d="M5760 2927 c0 -32 9 -39 27 -21 18 17 10 44 -12 44 -9 0 -15 -9 -15
-23z"/>
<path d="M5912 2933 c-14 -5 -62 -51 -62 -58 0 -12 49 -3 60 10 7 9 28 15 49
14 28 0 32 -2 16 -8 -15 -7 -6 -10 38 -16 32 -4 61 -5 64 -1 4 3 -5 6 -18 6
-17 0 -20 3 -11 9 14 8 -40 22 -100 25 -31 1 -37 12 -10 19 11 3 12 5 2 5 -8
0 -21 -2 -28 -5z"/>
<path d="M5987 2929 c27 -11 93 -11 93 0 0 5 -25 9 -56 8 -34 -1 -49 -4 -37
-8z"/>
<path d="M6240 2930 c0 -5 18 -10 40 -10 22 0 40 5 40 10 0 6 -18 10 -40 10
-22 0 -40 -4 -40 -10z"/>
<path d="M6510 2931 c105 -6 112 -7 80 -18 l-35 -11 46 1 c31 1 45 6 42 14 -3
6 6 13 19 16 13 2 -42 4 -122 4 l-145 -1 115 -5z"/>
<path d="M6825 2920 c-4 -6 -14 -8 -23 -6 -10 3 -24 1 -32 -4 -11 -7 2 -10 42
-10 60 0 88 7 88 21 0 13 -67 11 -75 -1z"/>
<path d="M6950 2920 c0 -5 14 -7 33 -3 45 8 47 13 4 13 -20 0 -37 -4 -37 -10z"/>
<path d="M6248 2912 c-97 -1 -168 -6 -168 -12 0 -10 87 -10 318 -2 73 2 131 6
128 9 -7 7 -78 9 -278 5z"/>
<path d="M7048 2913 c7 -3 16 -2 19 1 4 3 -2 6 -13 5 -11 0 -14 -3 -6 -6z"/>
<path d="M5290 2901 c0 -6 -3 -10 -7 -10 -27 4 -105 -2 -99 -8 4 -4 22 -6 41
-4 40 3 75 -6 75 -20 0 -6 -4 -8 -10 -4 -5 3 -21 3 -36 -1 l-27 -7 27 -14 c14
-7 26 -20 26 -28 0 -10 10 -15 30 -15 37 0 40 18 3 22 -14 2 -29 9 -31 17 -3
8 0 11 5 8 5 -3 15 -2 23 3 11 7 11 11 1 24 -7 8 -10 20 -7 25 4 5 2 12 -4 16
-5 3 -10 1 -10 -4z"/>
<path d="M6690 2900 c22 -5 -17 -8 -110 -10 -80 -1 -208 -6 -285 -9 -93 -5
-18 -7 225 -6 201 1 346 0 323 -2 -24 -2 -43 -8 -43 -14 0 -5 -19 -9 -42 -9
-32 0 -39 -3 -28 -10 10 -7 -14 -10 -77 -10 -51 0 -93 4 -93 9 0 5 -36 11 -80
13 -59 2 -80 0 -80 -9 0 -10 -55 -13 -240 -13 -231 0 -240 -1 -240 -19 0 -24
16 -36 26 -20 4 8 3 9 -4 5 -7 -4 -12 -2 -12 4 0 7 70 10 235 8 183 -2 235 0
235 10 0 8 23 12 80 12 44 0 80 -4 80 -8 0 -4 32 -8 71 -7 55 1 77 -3 93 -17
12 -9 15 -17 9 -18 -7 0 -13 -10 -13 -22 0 -16 3 -19 8 -10 6 9 25 10 73 5 57
-7 60 -8 29 -13 -35 -6 -35 -6 11 -11 34 -3 45 -1 42 9 -4 9 24 12 118 14
l124 2 -125 6 -125 6 165 1 c91 0 147 -3 125 -6 l-40 -7 35 -7 c19 -5 53 -10
75 -11 36 -3 36 -3 3 1 -21 2 -38 8 -38 12 0 9 98 21 178 21 93 0 49 13 -50
15 -57 1 -83 -2 -68 -7 14 -4 -5 -5 -46 -2 -124 9 -410 11 -384 3 25 -8 25 -8
-3 -6 -15 1 -26 6 -25 12 2 5 -10 13 -27 16 l-30 7 33 1 c18 0 31 5 27 10 -3
6 -14 8 -25 6 -11 -2 -22 0 -25 4 -2 5 9 7 25 6 17 -1 33 1 36 6 8 14 50 11
63 -4 6 -8 8 -17 4 -20 -3 -4 28 -7 70 -7 54 0 80 4 90 15 10 9 17 11 19 4 2
-6 17 -9 33 -7 29 3 29 4 -13 18 -24 8 -44 20 -43 25 0 6 27 13 58 16 68 7 55
11 -42 14 -38 1 -59 -1 -45 -5 20 -5 14 -8 -30 -13 -70 -9 -108 -6 -55 3 28 5
7 8 -72 9 -68 0 -113 5 -113 11 0 6 -19 9 -42 9 l-43 -2 35 -7z"/>
<path d="M7233 2897 c49 -7 87 -14 84 -17 -3 -3 67 -6 156 -7 89 -1 158 0 152
2 -9 4 -215 19 -400 29 l-80 5 88 -12z"/>
<path d="M5418 2890 c12 -5 22 -15 22 -21 0 -7 2 -10 5 -7 12 11 -9 38 -29 37
-21 0 -21 0 2 -9z"/>
<path d="M5920 2880 c0 -5 7 -10 15 -10 8 0 15 5 15 10 0 6 -7 10 -15 10 -8 0
-15 -4 -15 -10z"/>
<path d="M5078 2873 c17 -2 47 -2 65 0 17 2 3 4 -33 4 -36 0 -50 -2 -32 -4z"/>
<path d="M7192 2869 c11 -6 29 -6 50 0 32 9 31 9 -17 10 -38 0 -46 -2 -33 -10z"/>
<path d="M5010 2866 c0 -2 7 -6 15 -10 8 -3 15 -1 15 4 0 6 -7 10 -15 10 -8 0
-15 -2 -15 -4z"/>
<path d="M4930 2851 l35 -7 -38 -7 c-20 -5 -65 -5 -100 -2 -44 4 -56 3 -40 -4
25 -11 190 -17 200 -7 12 11 -31 35 -62 34 -29 -1 -29 -1 5 -7z"/>
<path d="M5111 2851 c-11 -7 -10 -10 5 -15 10 -3 -3 -3 -31 -1 -36 3 -43 2
-25 -5 14 -4 18 -9 10 -10 -10 -1 -8 -5 7 -12 17 -8 25 -7 38 6 9 9 20 14 25
11 5 -3 12 0 16 6 3 6 0 15 -7 20 -17 11 -21 11 -38 0z"/>
<path d="M7143 2849 c14 -9 16 -14 6 -25 -10 -12 -9 -13 5 -8 24 9 20 39 -6
41 -21 2 -21 1 -5 -8z"/>
<path d="M7182 2840 c0 -14 2 -19 5 -12 2 6 2 18 0 25 -3 6 -5 1 -5 -13z"/>
<path d="M7265 2846 c-11 -7 -28 -12 -37 -10 -10 1 -20 -1 -23 -5 -2 -4 8 -7
23 -5 15 1 35 2 45 3 10 1 16 5 12 10 -3 6 12 12 32 14 l38 4 -35 1 c-20 1
-44 -4 -55 -12z"/>
<path d="M7777 2852 c6 -4 -48 -7 -120 -6 -73 0 -99 -1 -59 -3 54 -3 74 -8 79
-19 5 -13 20 -15 82 -11 42 2 58 1 36 -2 -35 -6 -37 -7 -17 -15 13 -4 41 -5
62 -1 46 8 129 -3 111 -15 -7 -4 50 -10 126 -13 76 -2 149 -10 163 -15 22 -9
18 -11 -29 -11 -30 -1 -52 -3 -49 -6 6 -7 188 -15 188 -9 0 2 -15 11 -32 20
-18 10 -28 19 -22 21 17 6 89 -24 87 -36 -2 -6 7 -11 20 -10 12 0 16 3 10 6
-7 2 -13 9 -13 14 0 11 27 12 32 0 2 -4 32 -11 68 -14 39 -3 59 -2 49 3 -22
13 -137 30 -154 23 -8 -3 -15 -1 -15 5 0 5 -33 15 -72 21 -40 6 -84 14 -97 17
-15 5 -22 3 -18 -3 4 -6 25 -13 48 -17 23 -4 39 -9 36 -12 -3 -3 -31 -1 -63 5
-32 6 -72 11 -90 11 -18 0 -36 5 -39 10 -4 7 2 9 19 4 16 -4 26 -2 26 5 0 13
-42 15 -55 2 -18 -15 -75 -22 -75 -8 0 9 -13 11 -42 8 -37 -3 -41 -2 -30 12 9
10 10 17 2 22 -5 3 -10 -1 -10 -9 0 -21 -48 -21 -86 -1 l-29 15 30 0 c23 0 27
3 15 10 -8 5 -31 10 -50 10 -19 0 -30 -4 -23 -8z"/>
<path d="M7883 2835 c0 -8 4 -15 9 -15 4 0 8 4 8 9 0 6 -4 12 -8 15 -5 3 -9
-1 -9 -9z"/>
<path d="M4650 2820 c-25 -4 -39 -8 -32 -8 28 -4 9 -22 -23 -22 -24 0 -35 -5
-35 -15 0 -11 11 -15 40 -15 29 0 40 4 40 15 0 14 33 21 82 17 11 -1 15 4 12
12 -3 8 2 16 13 19 28 7 -46 5 -97 -3z m17 -16 c-3 -3 -12 -4 -19 -1 -8 3 -5
6 6 6 11 1 17 -2 13 -5z"/>
<path d="M7447 2823 c-4 -3 -24 -9 -44 -13 -38 -8 -38 -8 12 -9 28 -1 59 -4
70 -7 16 -4 21 0 22 15 1 17 -4 21 -26 21 -15 0 -31 -3 -34 -7z"/>
<path d="M7958 2823 c6 -2 18 -2 25 0 6 3 1 5 -13 5 -14 0 -19 -2 -12 -5z"/>
<path d="M7513 2808 c-2 -5 4 -8 13 -8 33 0 3 -14 -44 -21 -32 -4 -11 -6 68
-7 63 0 138 4 165 8 l50 9 -47 -2 c-31 -1 -48 2 -48 10 0 13 -149 23 -157 11z
m67 -20 c0 -4 -7 -8 -15 -8 -8 0 -15 4 -15 8 0 5 7 9 15 9 8 0 15 -4 15 -9z"/>
<path d="M8010 2812 c0 -5 14 -7 30 -4 17 2 30 6 30 8 0 2 -13 4 -30 4 -16 0
-30 -4 -30 -8z"/>
<path d="M4500 2800 c-22 -7 -21 -8 13 -9 23 -1 36 3 32 9 -7 11 -10 11 -45 0z"/>
<path d="M4750 2800 c0 -4 21 -8 47 -8 32 0 49 -5 55 -16 11 -20 28 -21 28 -1
0 11 11 15 40 15 22 0 40 4 40 9 0 5 -47 9 -105 9 -58 1 -105 -3 -105 -8z"/>
<path d="M4980 2800 c18 -12 60 -13 60 -2 0 4 -17 9 -37 10 -28 2 -34 0 -23
-8z"/>
<path d="M4411 2793 c-26 -3 -31 -7 -20 -14 9 -6 -4 -9 -41 -9 -64 0 -102 -9
-94 -21 2 -5 -8 -12 -23 -16 -26 -7 -25 -8 17 -14 25 -4 59 -7 75 -7 26 1 25
2 -10 9 -33 6 -28 7 25 5 36 -2 57 -2 48 1 -10 2 -18 8 -18 13 0 5 -21 7 -46
4 -31 -3 -43 -1 -39 7 4 6 30 10 59 9 79 -4 96 -1 96 14 0 8 8 17 18 19 21 6
1 5 -47 0z"/>
<path d="M6040 2774 c0 -18 4 -25 14 -21 7 3 19 0 25 -6 9 -9 10 -5 7 13 -2
14 -5 28 -5 33 -1 4 -10 7 -21 7 -15 0 -20 -7 -20 -26z"/>
<path d="M8158 2793 c7 -3 16 -2 19 1 4 3 -2 6 -13 5 -11 0 -14 -3 -6 -6z"/>
<path d="M6400 2751 c0 -47 11 -52 120 -49 70 2 71 2 17 5 l-58 4 4 40 4 39
-43 0 -44 0 0 -39z"/>
<path d="M6598 2783 c53 -5 55 -23 2 -23 -23 0 -40 -5 -40 -11 0 -12 98 -7
134 7 15 6 15 7 -1 20 -11 8 -41 13 -78 12 -49 -1 -52 -2 -17 -5z"/>
<path d="M5778 2773 c7 -3 16 -2 19 1 4 3 -2 6 -13 5 -11 0 -14 -3 -6 -6z"/>
<path d="M5923 2750 c-10 -11 -23 -20 -29 -20 -13 0 -28 -30 -19 -39 3 -3 10
0 14 7 4 7 18 11 31 10 18 -2 25 3 31 24 9 35 -5 45 -28 18z"/>
<path d="M7655 2761 c-76 -4 -111 -10 -112 -18 -3 -14 19 -18 31 -6 4 4 47 6
96 4 58 -2 90 1 90 8 0 6 34 12 83 14 l82 3 -80 0 c-44 0 -129 -2 -190 -5z"/>
<path d="M4220 2750 c-13 -8 -12 -10 3 -10 9 0 17 5 17 10 0 12 -1 12 -20 0z"/>
<path d="M4446 2752 c-2 -4 4 -9 15 -9 10 -1 19 2 19 8 0 11 -27 12 -34 1z"/>
<path d="M7300 2750 c0 -5 12 -10 28 -11 15 0 35 -2 44 -4 10 -2 21 1 24 6 3
6 32 9 65 8 32 -1 62 1 66 4 3 4 -46 7 -110 7 -71 0 -117 -4 -117 -10z"/>
<path d="M8000 2750 c0 -5 4 -10 9 -10 6 0 13 5 16 10 3 6 -1 10 -9 10 -9 0
-16 -4 -16 -10z"/>
<path d="M8080 2744 l-25 -14 31 0 c17 0 37 7 44 15 10 12 9 15 -6 14 -11 -1
-30 -7 -44 -15z"/>
<path d="M4117 2733 c-28 -7 -9 -23 29 -23 32 0 34 2 20 15 -15 15 -18 16 -49
8z"/>
<path d="M4800 2726 c0 -9 7 -16 16 -16 17 0 14 22 -4 28 -7 2 -12 -3 -12 -12z"/>
<path d="M4055 2720 c-19 -8 -19 -9 3 -9 12 -1 22 4 22 9 0 6 -1 10 -2 9 -2 0
-12 -4 -23 -9z"/>
<path d="M8578 2723 c6 -2 18 -2 25 0 6 3 1 5 -13 5 -14 0 -19 -2 -12 -5z"/>
<path d="M5960 2708 c0 -4 9 -8 20 -8 11 0 20 -4 20 -10 0 -5 8 -10 18 -9 10
0 12 3 4 6 -6 2 -10 8 -7 13 3 4 -9 10 -25 12 -17 3 -30 1 -30 -4z"/>
<path d="M3950 2700 c-8 -5 -28 -10 -44 -10 -15 0 -59 -8 -98 -17 -51 -12 -65
-19 -53 -26 10 -5 21 -4 29 2 8 7 50 18 95 26 76 13 137 34 101 35 -8 0 -22
-5 -30 -10z"/>
<path d="M6053 2703 c9 -2 25 -2 35 0 9 3 1 5 -18 5 -19 0 -27 -2 -17 -5z"/>
<path d="M6198 2703 c-40 -2 -68 -8 -68 -15 0 -6 12 -8 31 -4 17 3 82 7 143 7
89 1 102 3 66 10 -46 8 -54 8 -172 2z"/>
<path d="M4388 2693 c-49 -2 -88 -7 -88 -12 0 -13 173 -7 178 7 2 7 2 11 0 10
-1 -1 -42 -4 -90 -5z"/>
<path d="M4144 2682 c4 -7 2 -12 -4 -12 -6 0 -19 -7 -27 -16 -15 -15 -14 -16
12 -12 16 2 30 -2 32 -9 3 -8 -4 -13 -17 -13 -19 0 -21 -5 -19 -40 3 -43 -7
-63 -21 -40 -5 8 -13 11 -17 6 -4 -5 -2 -11 5 -13 6 -3 12 -12 12 -20 0 -9 7
-21 17 -28 20 -15 9 -35 -18 -35 -11 0 -17 -4 -14 -10 8 -14 45 -13 45 1 0 6
9 9 20 6 23 -6 90 12 90 25 0 4 -11 7 -24 6 -14 -1 -23 -5 -20 -9 2 -4 -3 -10
-12 -13 -23 -9 -24 -8 -24 14 0 11 7 20 15 20 8 0 15 5 15 11 0 6 -9 9 -20 6
-11 -3 -20 -1 -20 4 0 14 31 23 39 11 9 -15 97 -26 105 -13 4 5 -3 15 -14 21
-18 10 -19 12 -5 26 9 9 22 13 30 10 9 -3 12 0 8 10 -4 10 -22 14 -69 14 -60
0 -83 11 -49 24 8 3 15 11 15 18 0 9 -3 8 -10 -2 -9 -13 -10 -13 -10 0 0 13
-1 13 -10 0 -7 -12 -11 -8 -16 18 -4 18 -11 35 -17 39 -6 3 -7 1 -3 -5z m93
-138 c-3 -3 -12 -4 -19 -1 -8 3 -5 6 6 6 11 1 17 -2 13 -5z"/>
<path d="M5925 2680 c-3 -5 -15 -10 -26 -10 -12 0 -19 -7 -19 -20 0 -11 5 -20
10 -20 6 0 10 -7 10 -15 0 -20 -17 -19 -29 2 -13 25 -25 9 -12 -16 12 -22 17
-2245 5 -2275 -4 -11 -1 -16 10 -16 10 0 16 9 16 25 0 35 17 31 22 -5 4 -28 3
-30 -28 -30 l-34 0 -2 1155 c-2 907 -6 1157 -15 1167 -10 10 -13 -3 -13 -65 0
-45 4 -77 10 -77 7 0 10 -355 10 -1045 l0 -1045 -40 0 c-22 0 -40 -4 -40 -9 0
-12 45 -22 64 -15 12 5 16 -1 16 -24 0 -28 -2 -29 -45 -29 -25 0 -45 3 -45 6
0 11 -286 6 -301 -5 -20 -16 -140 -18 -188 -3 -32 9 -44 10 -53 1 -15 -15
-568 -17 -568 -2 0 12 -40 13 -55 2 -12 -8 -13 -27 -2 -38 4 -4 7 2 7 13 0 14
6 19 23 18 17 -1 21 -7 19 -26 l-3 -24 641 0 c422 0 639 3 637 10 -2 6 -203
11 -568 12 -310 2 -595 4 -634 6 -38 2 372 3 913 3 540 -1 982 2 982 5 0 4
-116 7 -257 8 -166 1 -260 6 -264 13 -4 6 -34 8 -77 6 -58 -4 -73 -2 -79 11
-10 21 -16 2210 -6 2281 7 43 12 56 28 58 33 6 42 22 13 22 -15 0 -30 -4 -33
-10z m153 -2384 c3 -3 -33 -5 -79 -5 -52 1 -73 4 -54 8 34 7 124 5 133 -3z"/>
<path d="M6048 2683 c6 -2 18 -2 25 0 6 3 1 5 -13 5 -14 0 -19 -2 -12 -5z"/>
<path d="M3938 2671 c-26 -4 -51 -11 -55 -15 -4 -5 9 -6 29 -2 20 4 39 2 42
-3 4 -5 -8 -12 -26 -14 -18 -2 -9 -4 20 -3 35 0 52 4 52 13 0 7 -6 13 -12 13
-9 0 -8 4 2 10 8 5 11 9 5 9 -5 -1 -31 -5 -57 -8z"/>
<path d="M3675 2641 c-5 -8 2 -10 22 -6 19 5 24 4 14 -3 -8 -6 -11 -18 -6 -31
9 -28 23 -27 31 4 7 27 24 34 24 10 0 -11 11 -15 40 -15 29 0 40 4 40 15 0 14
-25 23 -65 23 -11 0 -36 3 -56 7 -24 5 -39 3 -44 -4z"/>
<path d="M3838 2638 c9 -9 15 -9 24 0 9 9 7 12 -12 12 -19 0 -21 -3 -12 -12z"/>
<path d="M5778 2643 c7 -3 16 -2 19 1 4 3 -2 6 -13 5 -11 0 -14 -3 -6 -6z"/>
<path d="M4920 2629 c0 -5 15 -9 33 -10 30 -1 31 -1 7 -9 -24 -8 -24 -8 7 -9
17 -1 35 -5 38 -11 4 -6 -17 -10 -57 -9 -53 0 -59 2 -38 11 24 10 24 10 5 18
-32 14 -35 12 -35 -26 0 -29 3 -34 13 -26 7 6 36 11 66 10 39 0 56 5 65 18 9
12 15 14 20 6 8 -14 52 -16 60 -3 3 5 15 7 26 4 11 -3 28 -2 37 2 17 7 16 8
-2 15 -11 4 -26 3 -32 -2 -9 -7 -13 -7 -13 1 0 6 -5 11 -11 11 -5 0 -7 -5 -3
-12 5 -8 -2 -9 -26 -5 -18 4 -47 8 -64 9 -19 1 -10 4 24 8 l55 7 -70 2 c-38 1
-78 4 -87 6 -10 2 -18 -1 -18 -6z"/>
<path d="M5178 2628 c6 -6 18 -8 28 -6 14 3 12 5 -9 10 -19 3 -25 2 -19 -4z"/>
<path d="M5270 2623 c0 -15 2 -15 9 -4 7 10 12 2 19 -30 8 -34 10 -38 11 -16
1 31 -14 67 -29 67 -6 0 -10 -8 -10 -17z"/>
<path d="M3535 2608 c-55 -15 -71 -24 -71 -39 0 -17 2 -17 23 3 18 17 29 20
64 14 37 -6 41 -5 29 9 -11 13 -8 15 24 15 20 0 36 5 36 10 0 14 -24 11 -105
-12z"/>
<path d="M4420 2618 c0 -4 3 -7 8 -7 18 3 33 -2 28 -9 -2 -4 1 -14 8 -23 11
-16 123 -34 206 -32 19 0 27 -2 17 -4 -9 -3 -15 -8 -12 -13 3 -4 22 -4 42 1
21 5 53 9 72 9 29 0 32 2 21 15 -7 9 -29 15 -51 15 -28 0 -39 4 -39 15 0 11
-11 15 -40 15 -31 0 -40 4 -40 18 0 14 -2 15 -10 2 -6 -10 -10 -11 -10 -2 0 6
-4 12 -10 12 -5 0 -10 -6 -10 -14 0 -17 -27 -14 -59 6 -17 10 -25 10 -41 0
-11 -7 -20 -8 -20 -3 0 5 -13 9 -30 9 -16 -1 -30 -5 -30 -10z m120 -8 c0 -5
-4 -10 -10 -10 -5 0 -10 5 -10 10 0 6 5 10 10 10 6 0 10 -4 10 -10z"/>
<path d="M5240 2621 c0 -5 -10 -12 -22 -14 -17 -3 -14 -5 10 -6 31 -1 43 11
22 24 -5 3 -10 2 -10 -4z"/>
<path d="M5320 2619 c0 -5 5 -7 10 -4 6 3 10 8 10 11 0 2 -4 4 -10 4 -5 0 -10
-5 -10 -11z"/>
<path d="M5352 2605 c0 -16 2 -22 5 -12 2 9 2 23 0 30 -3 6 -5 -1 -5 -18z"/>
<path d="M4316 2607 c3 -10 9 -15 12 -12 3 3 0 11 -7 18 -10 9 -11 8 -5 -6z"/>
<path d="M3042 2590 c0 -14 2 -19 5 -12 2 6 2 18 0 25 -3 6 -5 1 -5 -13z"/>
<path d="M3628 2593 c-16 -2 -28 -9 -28 -14 0 -5 -20 -9 -44 -9 -25 0 -47 -3
-49 -7 -3 -5 35 -8 84 -8 86 0 89 1 89 23 0 12 -6 21 -12 21 -7 -1 -25 -4 -40
-6z"/>
<path d="M5320 2586 c0 -8 5 -18 10 -21 6 -3 10 1 10 9 0 8 -4 18 -10 21 -5 3
-10 -1 -10 -9z"/>
<path d="M3370 2565 c-23 -8 -35 -19 -35 -31 -1 -11 -4 -24 -8 -30 -4 -7 5
-14 25 -18 20 -4 34 -2 39 5 4 7 14 9 24 6 9 -4 13 -11 10 -17 -3 -5 -2 -10 3
-10 5 0 12 9 15 21 4 14 -1 23 -16 30 l-22 10 22 -5 c13 -2 25 -1 28 4 6 9
-18 20 -48 21 -19 1 -18 3 8 14 39 18 5 18 -45 0z m5 -73 c-3 -3 -11 0 -18 7
-9 10 -8 11 6 5 10 -3 15 -9 12 -12z"/>
<path d="M3597 2530 c3 -11 9 -20 14 -20 5 0 9 9 9 20 0 11 -6 20 -14 20 -9 0
-12 -7 -9 -20z"/>
<path d="M4310 2541 c0 -21 12 -39 23 -36 28 10 67 13 67 5 0 -11 -26 -20 -56
-20 -16 0 -23 -4 -18 -11 3 -6 16 -8 28 -4 46 15 128 28 221 34 40 3 40 3 10
12 -24 6 -19 7 24 5 32 -2 48 0 39 5 -8 5 -71 10 -139 12 -78 3 -117 1 -104
-4 16 -8 14 -8 -9 -5 -17 2 -40 0 -53 -5 -13 -5 -23 -5 -23 1 0 4 8 11 18 13
13 4 11 5 -5 6 -13 0 -23 -3 -23 -8z m220 -11 c12 -8 11 -10 -7 -10 -12 0 -25
5 -28 10 -8 13 15 13 35 0z m-65 -20 c-3 -5 -17 -10 -31 -10 -13 0 -24 5 -24
10 0 6 14 10 31 10 17 0 28 -4 24 -10z"/>
<path d="M5323 2510 c0 -25 2 -35 4 -22 2 12 2 32 0 45 -2 12 -4 2 -4 -23z"/>
<path d="M5341 2505 c1 -35 2 -37 9 -15 l8 25 2 -25 c1 -23 2 -23 10 -5 16 37
12 64 -10 62 -17 -1 -20 -8 -19 -42z"/>
<path d="M3226 2525 c-21 -7 -44 -11 -51 -9 -7 3 -16 1 -20 -5 -3 -6 2 -11 12
-12 10 0 3 -5 -14 -10 -23 -7 -33 -16 -33 -29 0 -17 7 -20 40 -20 l40 0 0 -65
0 -65 -30 0 c-34 0 -34 1 -20 -34 10 -28 30 -35 30 -11 0 17 9 19 30 5 10 -6
11 -10 3 -10 -7 0 -13 -4 -13 -9 0 -4 17 -5 38 0 20 4 99 21 174 36 75 16 139
31 142 34 8 7 -148 -16 -162 -25 -7 -4 -22 -4 -33 -1 -16 5 -18 9 -9 15 21 13
1 30 -36 30 -24 0 -34 5 -34 15 0 11 11 15 40 15 38 0 40 2 40 29 0 57 -6 61
-85 61 -53 0 -74 4 -78 14 -8 19 3 28 19 15 6 -5 24 -7 38 -3 19 4 26 13 26
30 0 28 -2 28 -54 9z m39 -15 c-3 -5 -15 -10 -26 -10 -11 0 -17 5 -14 10 3 6
15 10 26 10 11 0 17 -4 14 -10z m-15 -215 c14 -17 46 -20 55 -5 3 6 -4 11 -17
11 -16 1 -18 3 -6 6 9 2 27 -1 40 -8 l23 -13 -25 -7 c-39 -11 -82 -10 -75 1 4
6 -5 10 -20 10 -15 0 -24 4 -20 10 9 15 31 12 45 -5z"/>
<path d="M3475 2521 c-3 -6 4 -9 15 -8 11 1 20 5 20 9 0 11 -28 10 -35 -1z"/>
<path d="M3065 2499 c-4 -6 -3 -15 3 -21 6 -6 11 -4 15 6 7 18 -9 31 -18 15z"/>
<path d="M3839 2483 c0 -16 -3 -22 -6 -15 -6 14 -42 16 -63 2 -28 -18 1 -24
102 -21 74 2 103 -1 109 -11 4 -7 11 -9 15 -5 11 10 -1 18 -38 27 l-33 8 38 1
c30 1 37 5 37 21 0 18 -7 20 -80 20 l-80 0 -1 -27z m69 -20 c-10 -2 -26 -2
-35 0 -10 3 -2 5 17 5 19 0 27 -2 18 -5z"/>
<path d="M3108 2493 c7 -3 16 -2 19 1 4 3 -2 6 -13 5 -11 0 -14 -3 -6 -6z"/>
<path d="M3270 2480 c-11 -7 -4 -10 25 -9 31 0 36 2 20 9 -26 11 -28 11 -45 0z"/>
<path d="M4076 2475 c-4 -11 2 -15 20 -15 23 0 24 2 10 15 -8 8 -17 15 -19 15
-3 0 -7 -7 -11 -15z"/>
<path d="M5302 1417 c-1 -625 2 -1076 7 -1073 5 3 11 -3 14 -14 5 -20 50 -29
61 -12 3 5 -5 8 -17 7 -12 -1 -25 3 -29 9 -4 6 -7 485 -8 1065 0 580 -3 1057
-5 1060 -3 2 -4 -466 -3 -1042 2 -576 0 -1047 -4 -1047 -5 0 -9 478 -11 1063
l-2 1062 -3 -1078z"/>
<path d="M3655 2460 c3 -5 10 -10 16 -10 5 0 9 5 9 10 0 6 -7 10 -16 10 -8 0
-12 -4 -9 -10z"/>
<path d="M4015 2461 c-6 -11 9 -23 19 -14 9 9 7 23 -3 23 -6 0 -12 -4 -16 -9z"/>
<path d="M4258 2463 c7 -3 16 -2 19 1 4 3 -2 6 -13 5 -11 0 -14 -3 -6 -6z"/>
<path d="M5378 1425 c-2 -569 -2 -1035 -1 -1035 1 0 8 3 17 6 14 6 16 106 16
1035 0 905 -2 1029 -15 1029 -13 0 -15 -126 -17 -1035z"/>
<path d="M3540 2438 c0 -5 7 -8 16 -8 8 0 12 -5 8 -11 -4 -8 0 -9 15 -4 15 5
21 2 21 -9 0 -20 -10 -20 -38 0 -12 8 -22 12 -22 8 0 -3 -8 0 -17 7 -16 13
-17 12 -4 -3 7 -10 18 -15 25 -11 6 4 5 -1 -3 -10 -10 -13 -18 -14 -32 -6 -10
5 -19 12 -19 15 0 3 5 2 12 -2 7 -4 8 -3 4 5 -5 8 -12 9 -19 2 -12 -9 -18 -11
-37 -11 -5 0 -10 -7 -10 -15 0 -9 9 -15 23 -15 18 0 19 2 7 10 -8 5 -10 10 -4
10 16 0 23 -10 17 -26 -3 -8 -14 -14 -24 -14 -10 0 -19 -6 -19 -13 0 -7 9 -13
19 -13 11 0 19 5 18 11 -1 5 10 10 26 10 15 -1 27 2 27 6 0 4 25 7 55 6 55 -1
79 8 57 22 -7 4 18 8 55 8 45 1 61 -2 48 -7 -16 -7 -17 -9 -3 -9 28 -1 29 15
3 39 -23 21 -26 22 -42 8 -17 -15 -20 -14 -38 8 -20 24 -65 33 -65 14 0 -5 -8
-10 -17 -10 -15 0 -15 2 -4 9 10 7 7 9 -12 8 -15 -1 -27 -5 -27 -9z m80 -58
c0 -5 -15 -10 -32 -9 -31 1 -32 1 -8 9 35 11 40 11 40 0z"/>
<path d="M3890 2430 c-48 -6 -41 -13 13 -13 32 0 18 -17 -15 -18 -26 -1 -28
-3 -9 -6 13 -3 33 0 45 5 12 6 52 14 90 17 49 5 65 10 57 18 -7 7 -22 7 -53
-2 -30 -9 -43 -10 -46 -2 -2 6 -9 10 -15 9 -7 -1 -37 -4 -67 -8z"/>
<path d="M3440 2420 c0 -5 9 -8 20 -7 21 1 18 10 -5 13 -8 1 -15 -2 -15 -6z"/>
<path d="M2452 2345 c-1 -27 -4 -65 -8 -82 -4 -22 -2 -33 5 -33 7 0 11 8 10
18 -3 33 1 52 11 52 9 0 8 -20 -7 -72 -2 -10 -13 -18 -23 -18 -11 0 -19 -9
-23 -26 -3 -17 -1 -22 5 -16 6 6 17 8 25 5 10 -4 11 -8 3 -13 -6 -4 4 -6 23
-6 27 1 33 4 29 19 -3 13 0 16 14 10 14 -5 16 -3 9 13 -4 10 -8 27 -9 36 0 20
-16 13 -16 -8 0 -8 -4 -14 -10 -14 -18 0 -10 40 10 52 22 14 28 32 8 26 -20
-7 -47 29 -51 69 -4 34 -4 32 -5 -12z"/>
<path d="M3365 2360 c-3 -5 -1 -10 4 -10 6 0 11 5 11 10 0 6 -2 10 -4 10 -3 0
-8 -4 -11 -10z"/>
<path d="M3660 2358 c-14 -6 -41 -14 -60 -19 -29 -7 -25 -8 19 -4 30 2 57 9
60 14 3 5 15 11 26 14 l20 5 -20 0 c-11 0 -31 -4 -45 -10z"/>
<path d="M3040 2295 c0 -8 6 -15 14 -15 8 0 16 7 20 15 4 10 -1 15 -14 15 -11
0 -20 -7 -20 -15z"/>
<path d="M3100 2295 c0 -8 5 -15 10 -15 6 0 10 7 10 15 0 8 -4 15 -10 15 -5 0
-10 -7 -10 -15z"/>
<path d="M2375 2255 c-26 -12 -27 -14 -8 -15 12 0 25 5 28 10 4 6 10 8 15 5 5
-3 11 -1 15 5 8 14 -14 11 -50 -5z"/>
<path d="M2305 2232 c-14 -11 -133 -60 -170 -68 -25 -6 -27 -8 -10 -14 17 -6
16 -7 -8 -12 -15 -3 -27 -2 -27 2 0 4 -20 -2 -45 -13 -25 -12 -45 -26 -45 -33
0 -13 -30 -28 -38 -19 -3 3 0 5 6 5 7 0 12 4 12 9 0 5 -18 2 -39 -7 -24 -11
-35 -20 -28 -24 18 -11 87 -10 87 2 0 6 16 10 36 10 21 0 33 4 29 10 -3 6 -1
10 4 10 6 0 11 5 11 11 0 7 -7 8 -17 4 -40 -16 -57 -16 -28 1 18 11 48 16 78
15 41 -1 48 1 43 14 -4 11 3 19 22 26 29 11 84 35 120 52 12 6 22 14 22 19 0
10 -3 10 -15 0z"/>
<path d="M2342 2210 c-15 -25 3 -60 30 -60 16 0 16 3 6 20 -10 15 -10 22 0 32
17 17 15 28 -6 28 -9 0 -23 -9 -30 -20z"/>
<path d="M3046 2214 c-8 -21 -8 -24 4 -24 6 0 10 7 10 15 0 8 5 15 10 15 6 0
10 -6 10 -12 0 -9 2 -10 8 -2 4 7 16 14 27 17 11 2 1 5 -21 6 -30 1 -44 -4
-48 -15z"/>
<path d="M2401 2194 c0 -11 3 -14 6 -6 3 7 2 16 -1 19 -3 4 -6 -2 -5 -13z"/>
<path d="M2305 2191 c-3 -6 -16 -11 -29 -11 -12 0 -26 -4 -31 -9 -6 -5 -19
-11 -30 -14 -11 -2 8 -4 42 -4 34 1 57 5 50 9 -9 6 -8 10 3 17 8 6 12 13 8 16
-3 4 -9 2 -13 -4z"/>
<path d="M3068 2180 c-6 -11 -12 -1808 -5 -1803 4 2 7 -4 8 -14 1 -13 3 -11 9
7 4 14 8 419 8 900 1 752 -3 937 -20 910z m9 -1353 c-1 -243 -2 -44 -2 443 0
487 1 686 2 442 2 -243 2 -641 0 -885z"/>
<path d="M2538 2163 c7 -3 16 -2 19 1 4 3 -2 6 -13 5 -11 0 -14 -3 -6 -6z"/>
<path d="M3003 2153 l-43 -4 0 -73 c0 -65 2 -74 20 -79 17 -4 20 0 20 34 0 32
3 39 20 39 20 0 20 -8 23 -842 l2 -843 3 888 c1 488 1 886 0 885 -2 -1 -22 -3
-45 -5z"/>
<path d="M2336 2123 c-27 -2 -55 -11 -63 -19 -16 -16 -16 -16 75 -17 50 -1 65
-11 56 -39 -7 -22 14 -24 22 -3 4 8 10 15 15 15 4 0 6 -6 3 -14 -3 -8 -1 -17
5 -21 7 -4 11 5 12 22 0 27 1 27 9 6 9 -23 30 -32 30 -13 0 6 -4 10 -10 10 -5
0 -10 8 -10 19 0 10 -8 21 -17 24 -10 2 -27 8 -37 13 -15 5 -17 4 -11 -6 5 -9
4 -11 -3 -6 -7 4 -12 14 -12 22 0 8 -3 13 -7 12 -5 -1 -30 -3 -57 -5z"/>
<path d="M2160 2100 c0 -5 16 -10 35 -10 19 0 35 5 35 10 0 6 -16 10 -35 10
-19 0 -35 -4 -35 -10z"/>
<path d="M2497 2090 c4 -17 12 -20 37 -18 46 4 41 32 -6 36 -33 3 -36 1 -31
-18z"/>
<path d="M2195 2059 c-22 -12 -43 -26 -47 -32 -4 -6 -10 -8 -14 -4 -4 4 1 16
11 27 18 20 18 20 -24 20 l-42 0 3 -40 c2 -45 5 -47 24 -22 12 15 15 15 24 2
7 -10 12 -12 18 -4 4 6 23 19 42 29 19 10 38 23 42 29 6 8 8 8 8 -1 0 -6 8
-10 18 -8 9 2 21 4 25 4 5 1 5 6 2 11 -10 16 -47 12 -90 -11z"/>
<path d="M1857 2036 c-6 -15 11 -36 29 -36 15 0 15 -39 1 -57 -6 -9 -5 -13 3
-13 7 0 10 -8 7 -20 -3 -11 -1 -17 4 -14 5 3 12 -1 15 -9 3 -9 14 -12 32 -9
l27 6 -25 6 c-22 5 -25 11 -25 55 l0 50 38 -3 c20 -1 37 2 37 8 0 5 -18 10
-40 10 -24 0 -40 -5 -40 -12 0 -9 -3 -9 -12 0 -10 10 -10 15 1 21 7 5 10 14 7
20 -10 16 -26 13 -26 -5 0 -8 -5 -12 -10 -9 -6 4 -8 11 -5 16 4 5 2 9 -3 9 -6
0 -12 -6 -15 -14z"/>
<path d="M2310 2031 c-21 -24 -23 -41 -5 -41 8 0 15 5 15 10 0 6 14 10 30 10
17 0 30 4 30 10 0 5 -13 7 -30 3 -25 -5 -29 -3 -24 11 8 20 3 19 -16 -3z"/>
<path d="M1817 2026 c-18 -14 -17 -14 2 -21 16 -5 21 -15 21 -41 0 -31 -3 -34
-29 -34 -16 0 -31 -6 -34 -13 -4 -10 8 -13 48 -13 47 1 51 3 41 18 -8 13 -7
21 1 29 9 9 6 18 -12 37 -13 14 -21 31 -18 38 6 17 3 17 -20 0z"/>
<path d="M2516 1998 c-14 -27 -16 -115 -16 -739 0 -429 4 -709 9 -711 11 -4
17 -150 7 -167 -9 -14 1 -14 17 0 14 13 11 148 -4 164 -12 12 -12 1410 0 1453
12 41 7 41 -13 0z"/>
<path d="M2551 2012 c-2 -9 -4 -341 -5 -737 l-1 -720 5 640 5 640 5 -635 5
-635 2 727 c2 633 -2 791 -16 720z"/>
<path d="M1775 2000 c-3 -5 -1 -10 4 -10 6 0 11 5 11 10 0 6 -2 10 -4 10 -3 0
-8 -4 -11 -10z"/>
<path d="M2453 1955 c0 -27 2 -38 4 -22 2 15 2 37 0 50 -2 12 -4 0 -4 -28z"/>
<path d="M2018 1983 c-10 -2 -18 -9 -18 -14 0 -12 3 -12 36 6 28 14 19 18 -18
8z"/>
<path d="M2165 1980 c29 -7 29 -8 4 -9 -15 0 -32 -8 -39 -16 -7 -8 -11 -15 -9
-15 11 1 133 39 129 40 -3 0 -30 3 -60 4 -40 3 -47 2 -25 -4z"/>
<path d="M1686 1967 c-15 -11 -12 -12 23 -12 31 0 37 2 29 12 -6 7 -16 13 -22
13 -7 0 -20 -6 -30 -13z"/>
<path d="M2043 1962 c-24 -9 -43 -20 -43 -25 0 -5 8 -6 18 -2 9 4 31 11 49 16
33 10 55 30 31 28 -7 -1 -32 -9 -55 -17z"/>
<path d="M2940 1264 c0 -676 1 -715 18 -712 16 3 17 46 20 716 2 707 2 712
-18 712 -20 0 -20 -6 -20 -716z"/>
<path d="M3005 1270 c0 -393 1 -554 2 -357 2 196 2 518 0 715 -1 196 -2 35 -2
-358z"/>
<path d="M1613 1934 c-21 -9 -31 -19 -27 -28 4 -10 -6 -21 -28 -32 -19 -10
-27 -19 -20 -22 7 -2 24 3 37 12 26 17 34 9 13 -12 -9 -9 -9 -12 0 -12 7 0 15
6 18 13 6 16 34 18 52 4 10 -8 16 -7 21 1 4 7 23 13 42 14 59 2 155 -4 137 -9
-10 -2 -18 -8 -18 -13 0 -5 14 -4 30 2 49 17 20 38 -51 38 -52 0 -59 2 -59 20
0 11 -4 20 -9 20 -5 0 -11 -9 -14 -20 -3 -14 -14 -20 -31 -20 -14 0 -26 -4
-26 -10 0 -5 -4 -10 -10 -10 -17 0 -11 38 8 43 9 2 2 3 -17 1 -19 -2 -38 -9
-42 -16 -4 -7 -11 -9 -16 -4 -4 4 -1 11 7 16 28 16 55 39 45 39 -5 0 -24 -7
-42 -15z"/>
<path d="M1700 1940 c0 -5 7 -10 15 -10 8 0 15 5 15 10 0 6 -7 10 -15 10 -8 0
-15 -4 -15 -10z"/>
<path d="M2045 1925 c-40 -19 -6 -19 36 0 23 9 27 14 14 14 -11 0 -33 -7 -50
-14z"/>
<path d="M1530 1894 c-16 -8 -19 -14 -9 -14 8 0 24 7 35 15 24 18 7 18 -26 -1z"/>
<path d="M1496 1859 c4 -7 -4 -10 -24 -8 -16 2 -36 -2 -43 -8 -8 -6 -36 -21
-64 -34 -27 -12 -61 -31 -75 -42 l-25 -20 27 7 c16 3 30 1 34 -5 4 -8 -7 -10
-37 -8 -42 3 -127 -26 -114 -39 3 -3 10 -1 16 5 7 7 31 2 76 -16 55 -22 62
-27 42 -32 -14 -3 -31 0 -40 8 -8 7 -22 13 -30 13 -12 0 -11 -2 1 -10 12 -7
12 -10 1 -10 -8 0 -11 -6 -7 -16 4 -11 -1 -18 -14 -21 -11 -3 -20 -9 -20 -14
0 -5 14 -3 30 6 17 9 30 20 30 26 0 6 8 8 19 4 10 -3 30 0 45 6 26 12 64 59
47 59 -5 0 -11 -5 -13 -11 -2 -7 -13 -9 -26 -5 -26 9 -20 26 9 26 10 0 19 7
19 15 0 8 5 15 12 15 6 0 8 -3 4 -7 -4 -4 10 -15 31 -25 36 -16 37 -17 11 -17
-16 -1 -28 -6 -28 -12 0 -11 25 -6 80 19 19 9 51 21 70 28 l35 13 -35 -5 c-19
-3 -48 -12 -63 -19 -22 -11 -34 -11 -53 -3 -13 6 -24 14 -24 18 0 11 -51 31
-62 24 -6 -4 -9 -1 -6 7 2 8 18 19 34 24 16 6 40 17 54 26 16 11 38 15 63 12
46 -6 48 -18 5 -28 -29 -6 -31 -8 -13 -15 19 -8 19 -9 -3 -9 -12 -1 -25 -8
-28 -16 -4 -8 -10 -15 -16 -15 -5 0 -7 4 -4 9 3 5 -8 14 -26 20 -38 13 -38 13
-38 1 0 -5 9 -10 20 -10 11 0 20 -4 20 -8 0 -5 12 -14 26 -20 14 -7 23 -8 19
-2 -4 6 5 8 22 4 21 -4 36 0 53 15 14 12 18 19 9 15 -10 -3 -20 -1 -24 5 -3 6
2 11 12 11 10 0 35 8 56 19 34 17 35 19 14 25 -12 3 -35 6 -50 6 -16 0 -26 4
-23 9 3 5 -1 12 -10 15 -9 3 -12 2 -8 -5z m-221 -139 c3 -5 -1 -10 -9 -10 -8
0 -18 5 -21 10 -3 6 1 10 9 10 8 0 18 -4 21 -10z"/>
<path d="M1732 1849 c-18 -5 -30 -14 -27 -18 7 -12 65 -19 71 -9 3 4 1 8 -5 8
-6 0 -8 7 -5 15 4 8 5 15 3 14 -2 0 -19 -5 -37 -10z"/>
<path d="M1795 1850 c-3 -5 3 -10 15 -10 12 0 18 5 15 10 -3 6 -10 10 -15 10
-5 0 -12 -4 -15 -10z"/>
<path d="M1653 1823 c25 -6 21 -22 -9 -33 -34 -13 -41 -13 -26 2 17 17 15 33
-3 18 -23 -19 -18 -40 9 -40 14 0 28 5 31 10 3 6 17 10 30 10 13 0 27 5 30 10
3 6 -3 10 -14 10 -11 0 -23 5 -26 10 -3 6 -14 9 -23 9 -15 -1 -15 -2 1 -6z"/>
<path d="M2450 1150 c0 -447 3 -680 10 -680 7 0 10 233 10 680 0 447 -3 680
-10 680 -7 0 -10 -233 -10 -680z"/>
<path d="M1140 1690 c-13 -8 -12 -10 3 -10 9 0 17 5 17 10 0 12 -1 12 -20 0z"/>
<path d="M1187 1686 c-11 -9 -14 -15 -7 -18 8 -2 6 -15 -7 -41 -13 -26 -25
-37 -41 -37 -14 0 -21 4 -17 10 4 6 1 17 -5 26 -10 11 -16 12 -27 3 -7 -7 -17
-9 -20 -5 -4 4 -1 11 7 16 30 19 0 9 -35 -11 -37 -22 -43 -39 -6 -19 14 7 21
7 21 0 0 -5 -3 -10 -7 -10 -5 0 -15 -5 -23 -10 -13 -8 -12 -11 5 -24 18 -13
17 -15 -23 -25 -23 -7 -42 -16 -42 -20 0 -5 -10 -7 -22 -3 -13 3 -19 1 -15 -5
4 -6 -10 -10 -36 -10 -23 0 -35 2 -27 5 8 3 26 9 40 15 14 6 33 9 43 8 9 -1
17 3 17 8 0 17 -49 13 -83 -6 -18 -10 -55 -35 -84 -55 -29 -21 -56 -38 -60
-38 -15 -1 -58 -40 -45 -40 8 0 25 9 39 20 14 11 31 20 37 20 6 0 3 -7 -6 -14
-27 -20 -21 -26 10 -11 15 7 48 23 75 34 26 12 47 23 47 24 0 1 -11 4 -26 5
-14 1 -23 -2 -19 -8 3 -6 2 -10 -4 -10 -16 0 -22 18 -9 26 17 11 62 12 69 2 6
-9 145 46 164 64 7 6 3 14 -9 24 -11 8 -15 14 -9 14 7 0 19 7 28 16 12 13 19
14 28 5 8 -8 7 -11 -5 -11 -9 0 -20 -5 -24 -11 -4 -8 1 -9 17 -4 21 7 22 6 10
-9 -16 -20 -13 -20 30 -2 41 17 84 60 74 75 -3 6 -2 11 2 11 5 0 9 9 10 20 2
23 -5 25 -30 6z m-371 -235 c-7 -11 -36 -16 -36 -6 0 3 6 12 13 20 13 15 33 3
23 -14z"/>
<path d="M1104 1669 c-3 -6 1 -18 9 -27 13 -12 19 -13 31 -3 9 8 13 17 10 23
-3 5 -12 4 -20 -3 -13 -10 -18 -6 -15 14 2 11 -7 9 -15 -4z"/>
<path d="M944 1574 c-16 -13 -16 -15 -1 -10 9 3 17 1 17 -4 0 -6 9 -10 20 -10
24 0 27 25 4 34 -20 8 -17 8 -40 -10z"/>
<path d="M655 1381 c-3 -6 -11 -9 -16 -6 -5 4 -9 1 -9 -4 0 -13 10 -14 30 -1
8 5 12 12 8 15 -3 4 -9 1 -13 -4z"/>
<path d="M600 1350 c-13 -8 -12 -10 3 -10 9 0 17 5 17 10 0 12 -1 12 -20 0z"/>
<path d="M3010 470 c0 -44 3 -80 8 -80 4 0 7 36 7 80 0 44 -3 80 -7 80 -5 0
-8 -36 -8 -80z"/>
<path d="M2908 393 c7 -3 16 -2 19 1 4 3 -2 6 -13 5 -11 0 -14 -3 -6 -6z"/>
<path d="M2475 379 c-19 -7 -19 -8 -1 -8 15 -1 16 -4 6 -16 -7 -8 -10 -24 -7
-35 4 -16 0 -20 -18 -20 -13 0 -27 5 -30 10 -10 17 -25 11 -25 -10 0 -19 -6
-20 -117 -16 -65 2 -101 2 -80 -1 20 -2 37 -8 37 -14 0 -14 -78 -11 -83 4 -6
18 -386 14 -398 -4 -11 -18 -24 14 -15 37 3 9 1 14 -5 12 -6 -2 -10 -7 -10
-11 1 -4 1 -17 1 -29 0 -23 1 -23 176 -26 96 -1 173 2 170 6 -3 5 18 5 47 1
54 -8 219 -10 180 -2 -13 2 -23 9 -23 15 0 6 10 8 28 3 15 -5 188 -8 384 -9
197 -1 358 -4 358 -8 0 -12 28 -9 36 3 3 6 0 15 -7 20 -10 6 -6 9 14 9 15 0
27 5 27 10 0 6 10 10 23 10 18 0 19 -2 7 -10 -16 -11 411 -6 460 5 22 5 22 4
5 -4 -15 -7 1 -10 58 -10 43 -1 87 4 97 9 12 6 21 6 25 1 9 -16 -70 -22 -255
-19 -249 3 -366 -1 -354 -11 12 -11 257 -24 250 -13 -3 5 18 5 47 1 70 -10
119 -11 114 -1 -5 7 89 6 153 -2 19 -2 29 -2 22 1 -6 2 -10 9 -6 14 8 14 24
11 24 -6 0 -8 5 -15 10 -15 6 0 10 16 10 35 l0 35 -350 0 c-213 0 -350 -4
-350 -9 0 -13 -69 -8 -78 5 -11 15 -448 12 -463 -3 -16 -16 -61 -17 -77 -1
-17 17 -15 38 3 38 16 0 19 9 7 26 -4 7 -15 8 -27 3z m428 -96 c-89 -2 -237
-2 -330 0 -92 1 -19 3 162 3 182 0 257 -2 168 -3z"/>
<path d="M5440 378 c0 -5 71 -7 158 -6 160 2 142 6 -51 10 -59 2 -107 0 -107
-4z"/>
<path d="M2683 373 c64 -2 170 -2 235 0 64 1 11 3 -118 3 -129 0 -182 -2 -117
-3z"/>
<path d="M5360 370 c0 -5 5 -10 10 -10 6 0 10 5 10 10 0 6 -4 10 -10 10 -5 0
-10 -4 -10 -10z"/>
<path d="M3043 330 c1 -11 5 -20 9 -20 4 0 8 9 8 20 0 11 -4 20 -9 20 -6 0 -9
-9 -8 -20z"/>
<path d="M2440 320 c-13 -8 -12 -10 3 -10 9 0 17 5 17 10 0 12 -1 12 -20 0z"/>
<path d="M3075 320 c3 -5 8 -10 11 -10 2 0 4 5 4 10 0 6 -5 10 -11 10 -5 0 -7
-4 -4 -10z"/>
<path d="M1803 313 c-24 -2 -43 -8 -43 -13 0 -7 400 -5 485 2 6 0 42 -2 80 -5
39 -3 61 -4 50 -1 -11 3 -24 10 -29 15 -9 8 -452 10 -543 2z"/>
<path d="M2368 313 c7 -3 16 -2 19 1 4 3 -2 6 -13 5 -11 0 -14 -3 -6 -6z"/>
<path d="M5138 313 c12 -2 32 -2 45 0 12 2 2 4 -23 4 -25 0 -35 -2 -22 -4z"/>
<path d="M6598 313 c28 -3 42 -9 42 -18 0 -9 -6 -12 -15 -9 -8 4 -15 2 -15 -2
0 -5 -105 -9 -232 -9 -128 0 -285 -5 -348 -10 -97 -8 -58 -10 252 -10 l368 0
0 33 c0 32 0 32 -47 30 l-48 -1 43 -4z"/>
<path d="M4600 280 c0 -5 5 -10 10 -10 6 0 10 5 10 10 0 6 -4 10 -10 10 -5 0
-10 -4 -10 -10z"/>
<path d="M3100 271 c0 -6 5 -13 10 -16 6 -3 10 1 10 9 0 9 -4 16 -10 16 -5 0
-10 -4 -10 -9z"/>
<path d="M3135 271 c-10 -17 12 -21 25 -6 10 12 10 15 -3 15 -9 0 -18 -4 -22
-9z"/>
</g>
</svg>
